<svg xmlns="http://www.w3.org/2000/svg" viewBox="0 0 369.78 269.75" width="369.78" height="269.75">
  <defs>
    <style>
      .a {
        fill: #FF1493;
      }
    </style>
  </defs>
  <title>pink-logo</title>
  <g>
    <path class="a" d="M246.14,215l-22.84,5.37,1.16,5,7.9-1.86a1.35,1.35,0,0,1,1.63,1l3.06,13,9.66-2.27a1.35,1.35,0,0,1,1,.15A123.19,123.19,0,0,0,258,227.26a1.35,1.35,0,0,1,.22-2.56l3.47-.82q3.18-3,6.13-6.27a1.35,1.35,0,0,1,.29-2.52l2.44-.57q1.09-1.28,2.15-2.6l-.26-1.12L267.43,212a1.35,1.35,0,0,1-.62-2.64l5.05-1.19-.31-1.32L266.51,208a1.35,1.35,0,1,1-.62-2.64l5.05-1.19-.77-3.26-14.49,3.41.64,2.72a1.35,1.35,0,0,1-.17,1l-1.3,2.1,2.1,1.3a1.35,1.35,0,0,1,.44,1.86l-1.9,3.06a1.35,1.35,0,0,1-2.3-1.42l1.18-1.91-2.1-1.3a1.35,1.35,0,0,1-.44-1.86l1.72-2.78L253,205l-7.47,1.76,1.57,6.68A1.35,1.35,0,0,1,246.14,215Z"/>
    <path class="a" d="M177.16,257.72a122.12,122.12,0,0,0,65-18.62l-5.81,1.36a1.35,1.35,0,0,1-1.63-1l-3.06-13-26.79,6.3a1.35,1.35,0,0,1-1.63-1l-2.42-10.31-16.25,3.82.31,1.32,5.05-1.19a1.35,1.35,0,0,1,.62,2.64l-5.05,1.19.33,1.41,6.59-1.55a1.35,1.35,0,0,1,1.63,1l3.1,13.18,15.37-3.61a1.35,1.35,0,1,1,.62,2.64l-16.69,3.92a1.35,1.35,0,0,1-1.63-1L191.73,232l-17.79,4.18,1.23,5.24,4-.93a1.35,1.35,0,0,1,1.63,1l.56,2.38,5.38-1.26a1.35,1.35,0,0,1,.62,2.63l-5.38,1.26.57,2.41,2.2-.52a1.35,1.35,0,0,1,.62,2.63l-3.51.83a1.35,1.35,0,0,1-1.63-1l-1.74-7.42-4,.93a1.35,1.35,0,0,1-1.63-1l-1.54-6.56-10.76,2.53a1.35,1.35,0,0,1-.62-2.64l10.76-2.53-.33-1.41-5.05,1.18a1.35,1.35,0,0,1-.62-2.63l5.05-1.19-.63-2.66-33.16,7.79v0l.82,3.5,2.78,1.72a1.35,1.35,0,0,1,.44,1.86l-1.3,2.1,1.91,1.18a1.35,1.35,0,1,1-1.42,2.3l-3.06-1.9a1.35,1.35,0,0,1-.44-1.86l1.3-2.1-2.1-1.3a1.35,1.35,0,0,1-.61-.84l-.95-4v0L114,240.21A122.11,122.11,0,0,0,177.16,257.72Z"/>
    <path class="a" d="M369.43,118.38l-8.78,2.28a15,15,0,0,1-3.63.59h-.29a2.87,2.87,0,0,1-.85-.15h0a2.82,2.82,0,0,1-.5-1,7.92,7.92,0,0,1-.26-1.12,20.74,20.74,0,0,1-.26-3.06l-.19-9.12c0-1.22-.1-2.42-.24-3.68l-.05-.48-.16-.45a16.24,16.24,0,0,0-19-10.37L307,98.36a134.9,134.9,0,0,0-262.5,61l-17.75,4.13-.53.14a16.28,16.28,0,0,0-12.07,15.71v1.55c-.1,1.38-.13,2.75-.1,4.17l.1,4.86v7a8.67,8.67,0,0,1-1.28,4.23c-.63.87-2.18,2.11-6,3.09L0,206.12l.34,16.33,8.78-2.28a15,15,0,0,1,3.62-.59H13a2.92,2.92,0,0,1,.85.15,1.81,1.81,0,0,1,.29.47v13.9c0,2.59.82,12.44,6.61,14.88,1.71,1,5,2.52,13.35,1l55.1-12.81a134.9,134.9,0,0,0,212-49.3l34.69-8.07c7.59-2,12.68-4.61,15.57-8a17.56,17.56,0,0,0,3.57-8,37.61,37.61,0,0,0,.62-8.07l-.19-9.12c-.07-3.23.41-5.7,1.37-7,.63-.87,2.18-2.11,6-3.09l6.94-1.8ZM177.18,5.67a130.47,130.47,0,0,1,13.57.71A129.33,129.33,0,0,1,301.52,99.65l-6.34,1.47A122.75,122.75,0,0,0,258.8,43.26l0,.13,0,0a39.28,39.28,0,0,1-76.47-12.61s0,0,0-.08,0-.06,0-.09a39.08,39.08,0,0,1,4.43-18.11q-4.74-.37-9.58-.37A122.76,122.76,0,0,0,56.41,156.64l-6.35,1.48A129.3,129.3,0,0,1,177.18,5.67Zm-9.87,59.94-.45.31-.9-1.15-.9,1.15-.45-.31.81-1.2-1.21-.51.17-.49,1.25.4.06-1.37h.53l.06,1.37,1.25-.4.17.49-1.21.51Zm-16.29,69-4.59,1.07-.82-2.67h0L145,130.9a8.19,8.19,0,0,1-5.11-.08c-3.46-1.25-5.94-4.9-7.38-10.84a2.35,2.35,0,0,1,4.57-1.11c1,4.17,2.57,6.84,4.38,7.51a3.44,3.44,0,0,0,2.16,0L138.51,110a2.35,2.35,0,0,1,4.49-1.38l6.55,21.26a3.73,3.73,0,0,0,2.13-1.2c1.24-1.52,1.23-4.62,0-8.72a2.35,2.35,0,0,1,4.49-1.38c1.8,5.83,1.52,10.23-.82,13.09a8.24,8.24,0,0,1-4,2.61l-.37.1Zm-25.92-13.86v0l4.48,18.82-11.23,2.61-2.85-12-.92.25a20.2,20.2,0,0,1-11.71-.53c-8.51-3.12-14.57-12.08-18-26.62a5.76,5.76,0,1,1,11.21-2.67c2.44,10.25,6.27,16.81,10.79,18.47a9.15,9.15,0,0,0,6-.12L100.21,66a5.76,5.76,0,1,1,11.21-2.67l9.75,41a8.44,8.44,0,0,0,4.54-2.73c3-3.69,3-11.26-.1-21.33a5.76,5.76,0,0,1,11-3.35c4.35,14.35,3.64,25.14-2.1,32.08a20.08,20.08,0,0,1-10.7,6.53Zm9.52-65.12-.87.6L132,54l-1.73,2.22-.87-.6L131,53.34l-2.33-1,.33-.94,2.41.76.12-2.64h1l.12,2.64,2.4-.76.33.94-2.33,1ZM148,30.37l-.59.41-1.18-1.51L145,30.78l-.59-.41,1.06-1.58-1.59-.67.23-.64,1.64.52.08-1.79h.69l.08,1.79,1.64-.52.23.64-1.59.67ZM78.1,103.64l-.69.48L76,102.35l-1.37,1.76-.69-.48,1.24-1.84L73.37,101l.26-.74,1.91.6.1-2.09h.81l.1,2.09,1.91-.6.26.74-1.85.78Zm99.08,160.45a128.66,128.66,0,0,1-81-28.56l198.15-46.07A129.22,129.22,0,0,1,177.18,264.08ZM361.83,132.64q-6,1.55-8.18,4.6t-2.14,9.43l.19,9.13a33.4,33.4,0,0,1-.54,7.2,13.62,13.62,0,0,1-2.7,6.23q-3.45,4-13.54,6.67l-6.75,1.57-25.08,5.83-6.73,1.57-204,47.44-6.73,1.56L33.23,246.05c-4.15,1.12-8.85.43-10.36-.49-3.54-1.06-4.69-9.28-4.69-11.47V219.44a6,6,0,0,0-1.78-2.83,5.39,5.39,0,0,0-3.12-1,17.27,17.27,0,0,0-5.17.71l-3.88,1-.17-8.11,3.88-1q6-1.55,8.18-4.6a12.46,12.46,0,0,0,2-6.41V190l-.1-4.94c0-1.41,0-2.71.1-3.94v-1.7a12.21,12.21,0,0,1,9.1-11.84l.39-.11,14-3.24,3.69-.86L50.84,162l6.34-1.47L119.82,146,130,143.64l17.66-4.11,4.59-1.07,144-33.48,6.33-1.47,5.52-1.28L326.49,98l9.64-2.24a12.24,12.24,0,0,1,14.32,7.82c.11,1,.19,2.13.22,3.34l.19,9.12a24.43,24.43,0,0,0,.32,3.65,11.77,11.77,0,0,0,.41,1.73,6,6,0,0,0,1.78,2.84,5.39,5.39,0,0,0,3.12,1,17.27,17.27,0,0,0,5.17-.7l3.88-1,.17,8.11Z"/>
    <path class="a" d="M307.68,137.74a4.37,4.37,0,0,0-2.23,0,5.51,5.51,0,0,0-2.32,1.12,7.26,7.26,0,0,0-1.66,2,13.2,13.2,0,0,0-1.49,6.49q0,4,1.4,5.88a3.56,3.56,0,0,0,3.95,1.29,6.11,6.11,0,0,0,4-3.12,13.3,13.3,0,0,0,1.49-6.54q0-3.93-1.4-5.83A3.36,3.36,0,0,0,307.68,137.74Z"/>
    <polygon class="a" points="183.61 172.87 190.31 171.33 187.05 157.46 183.61 172.87"/>
    <path class="a" d="M154.94,164.75l-1.92.44-.17,23,1.92-.44a8.82,8.82,0,0,0,6-4q1.8-3,1.84-9.33T160.88,166Q159.14,163.78,154.94,164.75Z"/>
    <path class="a" d="M339.58,120.76l-.19-8.87q-.12-5.94-1.64-7.43a3.46,3.46,0,0,0-2.4-.79,13.79,13.79,0,0,0-3.6.51l-5.11,1.33-.08-4L41.7,167.76l.07,3.5-5.11,1.33q-4.39,1.14-5.87,3.36t-1.35,8.29l.18,8.7q.15,7-1.86,10.38a11.52,11.52,0,0,1-2.93,3.19,19.3,19.3,0,0,1-3.15,1.94v.47q4.42-.2,6.24,1.82,2.13,2.3,2.28,9.31l.19,8.87q.12,5.94,1.64,7.43a3.46,3.46,0,0,0,2.4.79,13.79,13.79,0,0,0,3.6-.51l5.11-1.33.1,4.83L328.09,173.9l-.09-4.34,5.11-1.33q4.39-1.14,5.87-3.36t1.36-8.29l-.18-8.7q-.15-7,1.86-10.38a11.52,11.52,0,0,1,2.93-3.19,19,19,0,0,1,2.74-1.72v-.68c-2.73.06-4.67-.55-5.82-1.83Q339.73,127.77,339.58,120.76Zm-68.32,9.13A.84.84,0,0,1,272,129l5.6-1.29q.72-.17.72.55l0,6.76a.84.84,0,0,1-.73.89l-5.6,1.29q-.72.16-.72-.55ZM79.48,184.67a11,11,0,0,0-1.92-1.12,8.28,8.28,0,0,0-1.61-.53,7.49,7.49,0,0,0-1.78-.18,9,9,0,0,0-7.62,4.64q-2,3.58-2.06,9.62t1.93,8.65q1.95,2.64,5.81,1.75a10.49,10.49,0,0,0,3.58-1.61,15.83,15.83,0,0,0,1.68-1.33,24.87,24.87,0,0,0,1.87-1.93l-.06,7.86a21,21,0,0,1-3.54,2.11,18.73,18.73,0,0,1-1.89.76,20.85,20.85,0,0,1-2.05.58,15.11,15.11,0,0,1-6.33.27,8.74,8.74,0,0,1-4.66-2.51Q57,207.81,57.1,198.8T61,184.11a16.94,16.94,0,0,1,4.71-4.66,19.35,19.35,0,0,1,6.35-2.65,19.6,19.6,0,0,1,2.05-.36,16.09,16.09,0,0,1,1.91-.12,11.74,11.74,0,0,1,3.5.49Zm27.18,18.57q-3.26,3.43-9.48,4.86a28,28,0,0,1-2.81.5,21,21,0,0,1-7.91-.55l.05-7.31a21.22,21.22,0,0,0,2.8,1.13,16.33,16.33,0,0,0,2.68.6,14.21,14.21,0,0,0,5.18-.21,9.83,9.83,0,0,0,2.38-.85,6.6,6.6,0,0,0,1.74-1.3,5.11,5.11,0,0,0,1.46-3.64,3.54,3.54,0,0,0-.94-2.61,3.75,3.75,0,0,0-1.2-.81,6.51,6.51,0,0,0-1.57-.44l-3.47-.52A23.32,23.32,0,0,1,91,191a7.83,7.83,0,0,1-2.7-1.55q-1.88-1.77-1.85-5.58a12.18,12.18,0,0,1,3.18-8.37,16,16,0,0,1,8.57-4.75,23.71,23.71,0,0,1,2.57-.45,20,20,0,0,1,2.4-.15q1.13,0,2.39.13a20.28,20.28,0,0,1,2.5.42l0,6.91a14.69,14.69,0,0,0-4.62-1.38,13.39,13.39,0,0,0-4.68.24,8,8,0,0,0-3.92,1.93,4.47,4.47,0,0,0-1.39,3.24,2.56,2.56,0,0,0,1,2.24,4.47,4.47,0,0,0,1.42.65,20.26,20.26,0,0,0,2.72.55l3,.45q4.34.63,6.34,2.71t2,6.27A12.25,12.25,0,0,1,106.66,203.24Zm29.61-6.82q-3.26,3.43-9.48,4.86a28,28,0,0,1-2.81.5,21.07,21.07,0,0,1-7.91-.55l.05-7.31a21.4,21.4,0,0,0,2.8,1.13,16.26,16.26,0,0,0,2.68.6,14.19,14.19,0,0,0,5.18-.21,9.83,9.83,0,0,0,2.38-.85,6.6,6.6,0,0,0,1.74-1.3,5.12,5.12,0,0,0,1.46-3.64,3.54,3.54,0,0,0-.94-2.61,3.78,3.78,0,0,0-1.2-.81,6.55,6.55,0,0,0-1.57-.44l-3.47-.52a23.37,23.37,0,0,1-4.52-1.08,7.83,7.83,0,0,1-2.7-1.54q-1.88-1.77-1.85-5.58a12.18,12.18,0,0,1,3.18-8.37,16,16,0,0,1,8.57-4.75,23.86,23.86,0,0,1,2.57-.45,20.06,20.06,0,0,1,2.4-.15q1.13,0,2.39.13a20.4,20.4,0,0,1,2.5.42l0,6.9a14.65,14.65,0,0,0-4.62-1.38,13.39,13.39,0,0,0-4.68.24,8,8,0,0,0-3.92,1.93,4.47,4.47,0,0,0-1.39,3.24,2.55,2.55,0,0,0,1,2.24,4.47,4.47,0,0,0,1.42.65,20.12,20.12,0,0,0,2.72.55l3,.45q4.34.63,6.33,2.71t2,6.27A12.25,12.25,0,0,1,136.27,196.43ZM166,187.36q-3.9,5.11-12.69,7.13l-7.59,1.75.26-35.8,7.59-1.75q8.79-2,12.63,1.26a10,10,0,0,1,2.84,4.79,27.52,27.52,0,0,1,.92,8Q169.89,182.25,166,187.36Zm27.78-2.18-2.15-8.34L182.15,179l-2.23,9.34L172.84,190l9.94-38,8.67-2,9.42,33.57ZM220.11,165l-.1,14.1-7.09,1.63.1-14.1-10.92-19.15,7.64-1.76,6.86,12.78,7.09-16,7.64-1.76ZM249,172.23a5.47,5.47,0,0,1-3.06,1.95,3.77,3.77,0,0,1-1.66.06,3.28,3.28,0,0,1-1.31-.62,3.35,3.35,0,0,1-1.23-2.85,5.66,5.66,0,0,1,4.28-5.41,4.24,4.24,0,0,1,1.63-.08,3,3,0,0,1,1.39.6,3.44,3.44,0,0,1,1.2,2.93A5.32,5.32,0,0,1,249,172.23Zm39-8.44-7.59,1.75q-5,1.16-7.19-.93t-2.12-8.11l.08-10.55-5.69,1.31,0-5.39,12.73-2.93-.11,15.95q0,3.14,1,4.26t3.33.55L288,158.4Zm29-14.55a16.89,16.89,0,0,1-2.53,5.06,15.49,15.49,0,0,1-3.9,3.7,15.66,15.66,0,0,1-5.23,2.21,11.88,11.88,0,0,1-5.33.18,8.28,8.28,0,0,1-3.75-1.88,9.11,9.11,0,0,1-2.49-4A17.18,17.18,0,0,1,293,149a20.61,20.61,0,0,1,.89-6,16.78,16.78,0,0,1,2.54-5.05,15.16,15.16,0,0,1,4-3.74,16,16,0,0,1,5.13-2.14,12.29,12.29,0,0,1,5.23-.21,8.09,8.09,0,0,1,3.85,1.88,9.22,9.22,0,0,1,2.44,3.78,16.51,16.51,0,0,1,.85,5.78A20.74,20.74,0,0,1,317,149.25Z"/>
  </g>
</svg>
